<?xml version="1.0" standalone="no"?>
<!DOCTYPE svg PUBLIC "-//W3C//DTD SVG 20010904//EN"
 "http://www.w3.org/TR/2001/REC-SVG-20010904/DTD/svg10.dtd">
<svg version="1.0" xmlns="http://www.w3.org/2000/svg"
 width="1791.500000pt" height="771.338196pt" viewBox="0 0 1791.500000 771.338196"
 preserveAspectRatio="xMidYMid meet">
<metadata>
Created by Potrace Professional 1.0-eval
</metadata>
<g transform="translate(-198.000000,1160.498936) rotate(-360.00) scale(0.100000,-0.100000)"
fill="#000000" stroke="none">
<path d="M11365 11595 c-277 -23 -497 -57 -815 -126 -1313 -281 -2391 -1005
-2656 -1781 -143 -420 -52 -872 235 -1171 199 -207 526 -310 926 -292 l140 6
-70 -44 c-38 -25 -125 -80 -193 -123 -124 -80 -590 -389 -781 -519 -343 -233
-882 -630 -1172 -863 -920 -737 -1491 -1441 -1717 -2117 -66 -197 -85 -288
-86 -400 -1 -126 18 -189 75 -239 45 -42 67 -44 120 -14 72 40 130 136 164
270 46 179 156 445 265 635 137 240 300 467 509 708 91 104 407 427 526 536
94 86 366 323 435 379 30 25 66 55 80 66 120 103 597 473 881 683 456 338 718
523 1233 869 1701 1144 2496 1739 2944 2201 237 244 353 410 427 611 l28 75 1
95 c1 98 -4 119 -51 218 -49 101 -191 202 -358 255 -86 28 -231 57 -363 73
-170 21 -539 25 -727 9z m685 -259 c231 -28 424 -82 512 -143 43 -29 88 -111
88 -158 0 -101 -74 -267 -186 -415 -70 -93 -319 -354 -429 -450 -237 -207
-444 -364 -915 -692 -388 -270 -1144 -763 -1645 -1072 -60 -37 -121 -76 -135
-85 -14 -10 -41 -26 -60 -36 l-35 -18 -210 -1 c-289 -1 -431 27 -620 121 -106
53 -141 78 -215 153 -180 182 -295 500 -276 762 23 325 178 630 466 918 559
559 1505 959 2590 1095 361 46 796 54 1070 21z"/>
<path d="M3778 11045 c-2 -1 -84 -5 -183 -9 -99 -4 -196 -9 -215 -11 -19 -3
-80 -9 -135 -15 -537 -56 -1055 -216 -1222 -377 l-43 -42 0 -35 c0 -73 80
-115 342 -181 229 -58 358 -84 364 -73 3 5 4 11 2 13 -2 2 -64 17 -139 33
-253 56 -436 115 -496 159 -68 50 -31 97 140 183 218 110 557 192 932 225 39
4 113 10 165 15 149 14 683 5 845 -14 352 -41 568 -85 825 -168 123 -40 248
-96 283 -126 41 -37 4 -95 -122 -190 -130 -98 -228 -157 -661 -397 -706 -391
-839 -477 -1041 -677 -139 -137 -184 -256 -144 -381 37 -117 121 -180 438
-327 302 -139 365 -171 464 -236 114 -74 139 -86 176 -82 l32 3 -2 29 c-6 82
-136 171 -541 372 l-313 155 -54 52 c-39 38 -55 62 -60 90 l-7 38 31 63 c58
119 276 302 583 492 89 55 181 111 203 124 879 503 983 568 1087 673 88 88
108 157 69 243 -31 69 -129 131 -306 194 -157 55 -453 121 -645 144 -165 20
-239 26 -378 31 -86 4 -183 8 -214 10 -31 1 -58 2 -60 0z"/>
<path d="M13765 10896 c-52 -35 -137 -121 -265 -266 -41 -47 -91 -103 -111
-125 -20 -22 -83 -92 -139 -155 -57 -63 -128 -142 -159 -175 -89 -97 -150
-163 -246 -270 -241 -268 -513 -547 -685 -701 -30 -27 -73 -65 -95 -85 -166
-151 -440 -376 -641 -527 -122 -92 -378 -268 -423 -292 l-25 -13 32 41 c59 74
217 235 326 331 58 52 106 101 106 108 0 24 -39 13 -77 -21 -77 -69 -443 -280
-558 -322 -60 -22 -72 -40 -25 -38 24 1 182 76 319 151 l66 36 -101 -104
c-164 -169 -179 -190 -168 -234 5 -20 13 -25 35 -25 29 0 106 34 159 70 14 9
98 65 187 124 281 184 776 567 1048 809 81 72 256 239 328 312 201 204 385
395 642 665 101 106 312 336 419 455 19 22 36 37 36 33 0 -14 -75 -181 -142
-313 -226 -447 -672 -1154 -1102 -1745 -339 -467 -794 -1069 -981 -1300 -34
-41 -81 -100 -106 -130 -24 -30 -134 -162 -244 -294 -449 -536 -443 -528 -452
-626 l-5 -56 18 -18 c23 -24 91 -15 148 18 78 45 205 193 611 706 293 370 725
976 1170 1640 505 754 1073 1732 1215 2090 l33 85 1 74 1 75 -34 23 c-45 30
-57 29 -116 -11z"/>
<path d="M14786 10855 c-52 -79 -89 -140 -366 -600 -327 -543 -589 -966 -868
-1395 -188 -289 -621 -933 -693 -1030 -14 -19 -99 -138 -189 -265 -169 -237
-196 -275 -535 -730 -300 -404 -422 -579 -445 -640 -31 -80 7 -154 79 -155 54
0 92 38 209 213 60 89 165 241 233 337 571 802 1049 1547 1550 2415 250 434
322 561 536 945 352 630 477 846 530 916 27 36 28 44 9 44 -7 0 -30 -25 -50
-55z"/>
<path d="M3457 10063 c-49 -78 -55 -93 -34 -93 7 0 23 20 37 45 13 24 25 43
27 42 1 -2 -4 -32 -12 -67 -32 -153 -195 -482 -548 -1105 -161 -286 -250 -440
-292 -510 -165 -274 -236 -414 -259 -507 l-6 -28 19 0 c33 0 113 101 183 230
147 271 391 740 574 1104 273 542 357 743 358 860 1 72 -14 82 -47 29z"/>
<path d="M14403 9263 c-130 -164 -533 -702 -595 -796 -91 -139 -101 -207 -34
-225 61 -17 135 4 339 100 330 154 549 229 678 231 l75 2 60 -32 c207 -113
303 -144 499 -160 146 -12 615 -8 800 6 330 25 403 30 520 36 66 4 129 8 141
10 12 2 97 6 190 10 93 4 183 8 199 10 166 18 1405 28 1650 13 287 -18 570
-75 649 -131 l28 -20 -5 -38 c-7 -50 -53 -115 -159 -223 -62 -63 -90 -99 -94
-122 -17 -89 62 -166 152 -149 44 8 217 146 284 226 26 32 63 88 82 126 l33
68 0 100 0 100 -30 59 c-54 106 -157 173 -337 220 -333 86 -773 86 -1678 1
-96 -9 -394 -43 -740 -84 -184 -22 -382 -45 -440 -51 -58 -6 -116 -13 -130
-15 -42 -7 -418 -45 -520 -53 -52 -4 -223 -7 -380 -6 -387 1 -421 9 -675 146
l-60 33 -80 3 c-152 7 -336 -55 -715 -242 -184 -91 -223 -107 -298 -122 l-31
-6 9 32 c13 44 47 102 158 265 208 304 506 711 546 744 20 17 21 31 1 31 -8 0
-49 -44 -92 -97z"/>
<path d="M5670 9113 c-69 -18 -195 -84 -335 -177 -259 -173 -491 -425 -503
-547 l-5 -49 35 -33 c46 -43 96 -57 201 -57 192 0 498 111 711 258 92 63 128
108 133 169 l5 48 -30 40 c-30 42 -88 84 -210 155 -49 28 -71 45 -64 52 6 6
72 10 156 9 300 -1 520 -51 539 -120 6 -26 -29 -124 -81 -228 -50 -97 -53
-130 -17 -139 l26 -6 167 100 c323 194 463 266 481 246 5 -5 11 -57 15 -116 8
-151 34 -201 128 -249 85 -43 333 -75 416 -53 68 19 -33 55 -188 68 -130 11
-224 46 -263 98 l-20 26 -8 132 c-14 206 -29 212 -244 104 -81 -42 -202 -113
-384 -225 -34 -21 -65 -39 -67 -39 -2 0 17 43 43 94 34 73 46 110 50 158 l5
63 -27 27 c-14 15 -38 34 -53 42 -42 21 -186 54 -297 67 -110 13 -376 16 -415
5 -14 -3 -5 5 20 18 25 14 69 30 98 36 48 11 63 22 45 33 -5 3 -33 -2 -63 -10z
m-170 -132 c0 -29 49 -70 166 -141 119 -71 179 -129 168 -163 -34 -114 -465
-336 -718 -369 -95 -13 -180 1 -216 34 -53 49 13 161 215 364 104 104 169 160
255 217 62 42 118 77 122 77 4 0 8 -9 8 -19z"/>
</g>
</svg>
