<?xml version="1.0" standalone="no"?>
<!DOCTYPE svg PUBLIC "-//W3C//DTD SVG 20010904//EN"
 "http://www.w3.org/TR/2001/REC-SVG-20010904/DTD/svg10.dtd">
<svg version="1.0" xmlns="http://www.w3.org/2000/svg"
 width="1587.365339pt" height="1302.666172pt" viewBox="0 0 1587.365339 1302.666172"
 preserveAspectRatio="xMidYMid meet">
<metadata>
Created by Potrace Professional 1.0-eval
</metadata>
<g transform="translate(-196.134661,1364.921491) rotate(-360.00) scale(0.100000,-0.100000)"
fill="#000000" stroke="none">
<path d="M8300 13643 c-91 -15 -200 -72 -200 -103 0 -21 82 -90 137 -116 92
-42 192 -62 438 -89 127 -14 307 -34 400 -45 660 -78 1063 -109 1810 -140 138
-5 417 -17 620 -25 204 -8 402 -17 440 -20 39 -2 120 -7 180 -10 111 -6 136
-7 395 -25 80 -6 181 -12 225 -15 44 -3 100 -8 125 -10 25 -3 101 -9 170 -15
1220 -102 2543 -339 3290 -589 273 -92 411 -147 615 -245 182 -88 321 -169
419 -244 134 -102 226 -223 226 -297 0 -84 -159 -204 -410 -310 -114 -48 -332
-124 -685 -238 -490 -157 -992 -296 -1615 -447 -135 -32 -423 -102 -640 -155
-710 -172 -1115 -264 -1345 -305 -27 -5 -183 -36 -345 -70 -1394 -287 -1567
-317 -2740 -480 -162 -22 -389 -54 -505 -70 -518 -72 -702 -90 -1005 -97 -234
-5 -441 4 -507 23 -17 5 -23 2 -23 -9 0 -25 134 -38 440 -44 355 -7 821 25
1515 102 22 3 112 11 200 20 731 70 1277 138 1770 221 83 14 188 32 235 39
120 19 882 149 1300 221 181 31 538 103 775 154 181 40 623 135 965 209 310
67 942 221 1215 297 548 152 881 257 1032 325 24 10 46 19 50 19 15 0 209 103
277 147 97 63 226 196 262 270 l29 58 0 101 0 100 -39 79 c-47 96 -150 203
-270 284 -262 175 -907 434 -1521 610 -547 156 -1529 361 -2160 451 -82 12
-161 23 -175 26 -35 6 -752 91 -830 98 -36 3 -139 12 -230 21 -91 8 -194 17
-230 20 -36 3 -87 8 -115 10 -42 5 -418 31 -695 50 -41 3 -199 12 -350 20
-151 8 -311 17 -355 20 -104 7 -207 13 -325 20 -270 16 -392 26 -690 55 -259
26 -414 43 -715 80 -517 63 -735 80 -835 63z"/>
<path d="M7563 13415 c-72 -36 -123 -98 -183 -220 -226 -460 -389 -1482 -485
-3030 -2 -44 -9 -188 -15 -320 -5 -132 -12 -292 -15 -355 -2 -63 -9 -299 -15
-525 -21 -860 -31 -1212 -35 -1270 -2 -33 -7 -154 -10 -270 -3 -115 -8 -230
-10 -255 -2 -25 -7 -153 -10 -285 -4 -132 -8 -253 -10 -270 -2 -16 -6 -167
-10 -335 -4 -168 -9 -307 -11 -309 -2 -3 -10 3 -17 11 -672 854 -878 1136
-1351 1848 -122 184 -243 367 -267 405 -47 73 -174 269 -246 381 -130 201
-395 629 -514 832 l-137 233 145 287 c292 578 414 810 603 1152 56 102 116
210 132 240 17 30 38 69 48 85 9 17 33 59 52 95 20 36 68 126 108 200 114 212
142 264 234 435 213 393 486 987 486 1054 0 66 -59 131 -117 131 -42 0 -98
-50 -108 -96 -6 -31 -89 -202 -203 -419 -158 -302 -205 -391 -212 -400 -4 -5
-24 -41 -45 -80 -21 -38 -63 -117 -95 -175 -59 -109 -78 -144 -282 -533 -67
-127 -148 -281 -181 -342 -135 -253 -477 -954 -664 -1363 -13 -30 -26 -52 -27
-50 -2 1 -17 28 -34 58 -16 30 -63 116 -105 191 -411 741 -726 1369 -925 1844
-60 141 -128 312 -207 520 -32 83 -68 164 -81 182 -13 17 -49 44 -79 58 -95
47 -162 19 -209 -86 l-28 -61 7 -46 c12 -89 84 -357 139 -524 94 -285 218
-571 419 -968 112 -221 126 -247 330 -620 25 -46 158 -284 230 -410 67 -119
152 -266 238 -411 55 -91 99 -170 99 -175 0 -8 -215 -481 -352 -774 -20 -41
-107 -230 -196 -420 -88 -190 -183 -394 -212 -455 -395 -841 -631 -1405 -1070
-2562 -99 -260 -115 -323 -85 -323 9 0 18 8 22 17 3 10 21 56 39 103 22 56 29
87 22 91 -7 4 10 55 47 145 171 413 384 912 462 1084 49 107 120 263 158 345
74 161 473 962 630 1265 53 102 221 430 372 730 152 300 279 548 282 552 4 4
25 -23 47 -60 161 -263 678 -1040 934 -1402 519 -733 776 -1065 1299 -1675 85
-99 175 -203 200 -230 71 -78 193 -214 225 -252 l29 -33 2 -748 c2 -411 6
-769 9 -797 3 -27 8 -160 11 -295 3 -135 8 -270 10 -300 2 -30 7 -125 10 -210
14 -378 47 -777 96 -1152 12 -91 42 -159 61 -140 7 7 5 18 -7 36 -32 48 -70
427 -86 861 -13 325 -6 1699 10 2055 6 118 13 289 17 379 l7 165 50 -55 c28
-30 116 -124 196 -209 80 -85 186 -197 236 -250 192 -203 694 -702 839 -831
254 -229 564 -489 791 -665 49 -38 148 -116 220 -174 304 -244 595 -456 1042
-758 373 -251 457 -323 505 -431 13 -28 23 -40 30 -33 6 6 1 27 -13 58 -36 78
-171 202 -384 353 -340 241 -603 438 -874 656 -35 28 -349 295 -611 519 -319
273 -790 720 -996 946 -102 112 -157 174 -214 240 -30 36 -71 83 -91 105 -19
22 -134 159 -255 305 -120 146 -227 274 -236 285 -9 11 -62 76 -118 144 l-102
124 6 56 c3 31 8 103 11 161 3 58 8 130 10 160 3 30 7 102 10 160 3 58 8 128
10 155 3 28 9 122 15 210 6 88 12 185 15 215 5 63 12 160 20 270 3 41 9 131
15 200 5 69 14 193 20 275 25 367 100 1165 200 2130 88 845 172 1496 266 2060
111 671 212 1158 270 1298 33 82 34 180 2 227 -53 78 -123 96 -205 55z"/>
<path d="M12805 8498 c-8 -18 -28 -70 -45 -115 -71 -188 -170 -273 -319 -273
-92 0 -159 25 -216 80 -27 26 -59 50 -69 52 -14 2 -23 17 -31 53 -6 28 -15 56
-19 63 -13 22 -46 12 -89 -26 -23 -21 -59 -51 -79 -66 l-38 -28 0 78 c-1 91
-14 117 -59 117 -19 0 -46 -13 -78 -40 -153 -126 -310 -194 -448 -192 -87 0
-127 17 -137 55 -4 17 -15 37 -23 44 -20 17 -38 7 -130 -65 -81 -65 -161 -105
-205 -105 l-31 0 6 23 c26 82 140 259 200 309 l20 17 -11 18 c-6 10 -15 18
-20 17 -5 0 -103 -46 -219 -103 -356 -175 -484 -222 -609 -224 l-79 -2 -12 35
-12 35 -49 18 c-71 26 -73 30 -61 114 11 78 1 117 -33 128 -30 9 -46 -4 -105
-88 -89 -126 -137 -181 -279 -322 -253 -251 -297 -290 -306 -275 -11 17 -24
148 -22 216 3 81 29 198 56 253 29 57 32 77 13 84 -20 7 -30 -2 -62 -53 -40
-66 -203 -221 -299 -284 -82 -55 -165 -97 -218 -110 l-28 -6 0 25 c0 15 20 76
45 136 48 117 54 146 31 155 -8 3 -59 -2 -114 -10 -55 -9 -122 -16 -149 -16
-83 0 -143 -11 -143 -27 0 -7 10 -27 21 -43 60 -81 -38 -225 -166 -245 l-40
-7 -28 22 c-21 16 -27 30 -27 58 0 84 54 238 94 271 20 17 21 41 1 41 -8 0
-31 -11 -51 -25 -44 -30 -113 -52 -192 -61 -51 -5 -245 8 -312 21 -46 10 -62
-14 -86 -131 l-22 -109 -1 153 c-1 94 -5 152 -11 152 -6 0 -10 -90 -10 -251 0
-184 3 -250 11 -247 7 2 29 91 50 197 21 107 40 196 43 198 2 3 44 0 93 -6
123 -15 278 -13 343 4 30 8 55 13 57 12 1 -2 -7 -31 -17 -65 -11 -34 -22 -90
-25 -124 l-6 -63 20 -32 c37 -59 120 -65 214 -15 58 31 103 89 123 160 l15 52
-14 29 -15 30 15 5 c8 3 40 6 71 7 31 0 95 6 142 13 47 7 86 13 87 12 0 -1
-17 -44 -40 -96 -23 -55 -42 -117 -45 -147 l-4 -51 22 -12 c64 -34 289 80 454
231 l69 64 -7 -30 c-15 -57 -15 -220 0 -309 l15 -90 -88 -90 c-48 -49 -97 -99
-108 -111 -11 -12 -47 -51 -80 -86 -347 -367 -495 -593 -495 -757 l0 -44 34
-34 34 -34 50 0 c88 0 308 102 445 208 113 86 218 238 263 377 l26 80 3 130
c2 72 -1 166 -7 209 l-10 80 34 30 c18 17 105 97 193 177 187 172 263 249 332
340 l50 66 18 -32 c16 -31 64 -60 110 -67 10 -2 28 -20 39 -40 23 -45 54 -54
156 -45 110 9 341 97 602 228 43 22 80 39 83 39 4 0 -3 -13 -15 -30 -34 -47
-100 -195 -100 -223 0 -97 153 -69 315 57 l69 54 12 -27 c20 -47 74 -65 189
-64 l100 1 74 26 c90 31 181 81 267 147 36 27 69 49 75 49 10 0 12 -20 9 -107
l-2 -61 21 -11 c30 -16 74 5 142 67 31 29 59 52 62 52 2 0 8 -20 11 -45 7 -43
33 -75 61 -75 6 0 34 -22 62 -49 l50 -48 72 -18 c237 -58 402 56 495 343 27
79 37 59 55 -104 10 -82 22 -104 58 -104 35 0 77 24 171 97 46 36 85 63 87 61
2 -2 -2 -22 -8 -46 -26 -97 34 -105 255 -33 208 69 232 67 258 -16 16 -50 46
-81 89 -93 63 -17 263 -11 463 15 325 41 434 49 523 37 50 -7 274 -10 595 -9
l515 2 76 -36 c41 -20 97 -43 125 -52 110 -36 313 -60 594 -72 74 -3 171 -7
215 -10 44 -3 157 -7 250 -11 477 -16 553 -62 476 -291 -37 -111 -106 -250
-247 -500 -339 -599 -491 -979 -724 -1813 -236 -845 -263 -933 -445 -1465
-149 -433 -197 -580 -240 -733 -136 -474 -150 -701 -70 -1084 33 -154 18 -243
-90 -533 -45 -121 -69 -200 -72 -241 l-5 -60 31 -31 c77 -77 225 -57 556 76
237 96 293 138 266 199 l-12 25 -73 -6 c-81 -6 -162 -36 -197 -73 l-22 -24 23
-8 23 -9 -104 -37 c-199 -70 -336 -99 -368 -77 l-15 9 36 94 c20 51 61 154 92
229 97 237 108 310 82 563 -30 301 -18 435 70 776 75 291 184 602 397 1140
162 408 206 550 349 1130 133 543 216 835 318 1120 79 221 148 376 320 720
234 468 280 587 280 723 0 110 -44 183 -141 232 -85 44 -144 48 -604 46 -376
-2 -662 7 -760 24 -106 18 -188 42 -254 72 -125 58 -160 63 -391 58 -113 -3
-223 -8 -246 -10 -86 -11 -434 -12 -539 -3 -187 17 -292 10 -625 -44 -91 -15
-181 -22 -275 -22 l-141 -1 -27 17 c-16 11 -30 33 -37 57 -5 21 -22 50 -36 65
-41 40 -94 35 -265 -24 -145 -50 -219 -63 -219 -36 0 7 7 30 15 50 18 42 7 76
-25 76 -10 0 -66 -36 -124 -79 -112 -84 -144 -101 -156 -81 -4 6 -10 48 -14
92 -7 81 -27 146 -49 160 -25 16 -48 7 -62 -24z m-3606 -1050 c1 -85 -17 -185
-49 -270 -39 -105 -165 -258 -272 -330 -104 -71 -313 -161 -362 -156 l-31 3
-3 28 c-6 55 46 176 127 292 85 122 258 314 466 517 l110 108 6 -58 c4 -31 7
-92 8 -134z"/>
<path d="M17648 2326 c6 -188 -30 -340 -104 -436 -26 -32 -34 -53 -32 -75 l3
-30 25 3 c53 5 100 98 119 236 12 84 15 328 5 389 -13 74 -20 34 -16 -87z"/>
<path d="M16601 2141 c-9 -6 -2 -10 25 -14 100 -15 231 -49 276 -74 148 -81
203 -239 164 -479 -23 -143 -21 -186 7 -212 13 -12 30 -22 38 -22 8 0 -5 -9
-29 -20 -73 -33 -122 -83 -166 -168 -22 -43 -21 -124 2 -145 31 -28 94 -49
166 -54 158 -12 268 65 291 204 10 65 -11 96 -99 138 -40 19 -86 35 -102 35
l-29 1 27 14 c25 14 55 75 45 92 -3 5 -15 66 -27 136 -38 224 -83 332 -181
428 -69 69 -125 97 -226 113 -43 8 -91 19 -106 25 -34 13 -57 14 -76 2z m340
-1118 l14 -18 -17 14 c-10 7 -18 15 -18 17 0 8 8 3 21 -13z"/>
<path d="M17403 1062 c-17 -2 -37 -10 -44 -18 l-12 -15 15 -15 c8 -8 37 -17
64 -20 63 -8 77 -21 104 -97 30 -83 65 -142 119 -200 41 -45 101 -86 101 -71
0 3 -19 27 -41 52 -58 66 -95 134 -126 231 -39 124 -84 162 -180 153z"/>
<path d="M16640 1043 c-14 -2 -117 -34 -229 -70 -112 -36 -255 -78 -318 -94
l-115 -29 -139 0 c-132 0 -189 -10 -189 -33 0 -5 7 -6 18 -1 9 5 85 9 167 10
113 1 186 7 295 27 203 35 226 38 397 42 83 2 161 6 172 10 26 8 54 59 46 84
-12 39 -57 62 -105 54z"/>
</g>
</svg>
